<svg viewBox="0 0 200 200" xmlns="http://www.w3.org/2000/svg">
  <path fill="#d5f3fb" d="M45,-79.2C57.9,-70.5,67.6,-57.6,74.9,-43.7C82.1,-29.8,86.8,-14.9,88.2,0.8C89.5,16.5,87.5,32.9,80.1,46.5C72.7,60.1,59.9,70.9,45.7,78.7C31.4,86.5,15.7,91.4,0.4,90.7C-15,90.1,-29.9,83.9,-43.5,75.7C-57.1,67.5,-69.4,57.3,-77.6,44.4C-85.9,31.4,-90.1,15.7,-90.9,-0.4C-91.6,-16.6,-89,-33.2,-81.4,-47.4C-73.9,-61.6,-61.5,-73.3,-47.1,-81.2C-32.8,-89,-16.4,-93,-0.2,-92.7C16,-92.4,32.1,-87.9,45,-79.2Z" transform="translate(100 100)" />
</svg>