<svg viewBox="0 0 200 200" xmlns="http://www.w3.org/2000/svg">
  <path fill="#00D100" d="M42.7,-73C55.3,-66.7,65.4,-55.2,74,-42.1C82.6,-29.1,89.7,-14.5,89.6,0C89.6,14.5,82.6,29.1,73.1,40.5C63.6,52,51.7,60.4,39.1,68.3C26.5,76.2,13.3,83.5,-1.5,86.2C-16.3,88.8,-32.6,86.8,-46.2,79.5C-59.8,72.2,-70.7,59.7,-76,45.6C-81.3,31.4,-80.9,15.7,-79,1.1C-77.1,-13.5,-73.5,-26.9,-67.3,-39.4C-61.1,-51.9,-52.1,-63.4,-40.5,-70.2C-28.8,-77,-14.4,-79.2,0.3,-79.7C15.1,-80.3,30.1,-79.3,42.7,-73Z" transform="translate(100 100)" />
</svg>