<?xml version="1.0" standalone="no"?><svg xmlns="http://www.w3.org/2000/svg" viewBox="0 0 1440 320"><path fill="#00A300" fill-opacity="1" d="M0,96L30,96C60,96,120,96,180,90.7C240,85,300,75,360,64C420,53,480,43,540,37.3C600,32,660,32,720,48C780,64,840,96,900,106.7C960,117,1020,107,1080,106.7C1140,107,1200,117,1260,133.3C1320,149,1380,171,1410,181.3L1440,192L1440,0L1410,0C1380,0,1320,0,1260,0C1200,0,1140,0,1080,0C1020,0,960,0,900,0C840,0,780,0,720,0C660,0,600,0,540,0C480,0,420,0,360,0C300,0,240,0,180,0C120,0,60,0,30,0L0,0Z"></path></svg>